<svg id="svg" version="1.1" xmlns="http://www.w3.org/2000/svg" xmlns:xlink="http://www.w3.org/1999/xlink" width="400" height="312.5" viewBox="0, 0, 400,312.5"><g id="svgg"><path id="path0" d="M195.402 12.784 C 193.475 13.102,191.676 13.447,191.406 13.551 C 190.973 13.717,187.373 14.547,180.156 16.145 C 178.112 16.598,176.729 17.041,172.031 18.753 C 171.000 19.129,169.406 19.701,168.489 20.024 C 166.465 20.736,160.869 23.364,160.636 23.711 C 160.544 23.848,159.766 24.359,158.906 24.846 C 158.047 25.334,156.781 26.171,156.094 26.707 C 155.406 27.243,154.081 28.221,153.149 28.879 C 148.594 32.098,141.604 40.765,138.618 46.897 C 137.829 48.518,136.626 50.579,135.945 51.478 C 134.204 53.776,131.805 59.328,131.113 62.662 C 131.043 63.003,130.771 63.876,130.509 64.602 C 130.247 65.329,129.946 66.806,129.840 67.884 C 129.734 68.962,129.113 71.320,128.459 73.125 C 127.804 74.930,127.105 77.461,126.904 78.750 C 126.249 82.955,125.099 87.554,123.621 91.875 C 122.579 94.921,121.812 97.671,120.630 102.607 C 119.567 107.047,118.800 108.777,116.874 111.077 C 116.163 111.927,115.002 113.595,114.295 114.785 C 112.874 117.177,110.630 119.461,107.705 121.492 C 105.875 122.762,104.767 123.634,102.656 125.466 C 102.141 125.914,101.033 126.871,100.194 127.593 C 99.356 128.315,97.668 129.825,96.444 130.947 C 95.220 132.069,93.727 133.325,93.125 133.738 C 92.523 134.150,91.322 135.201,90.455 136.072 C 89.588 136.943,87.716 138.711,86.295 140.000 C 83.046 142.949,80.529 145.522,79.377 147.076 C 78.886 147.739,77.256 149.406,75.756 150.781 C 72.628 153.648,71.919 154.346,68.899 157.530 C 64.915 161.731,62.954 164.192,61.861 166.360 C 61.250 167.572,59.927 169.404,58.813 170.579 C 54.758 174.860,54.157 175.568,52.389 178.143 C 51.393 179.594,49.826 181.836,48.907 183.125 C 47.988 184.414,47.225 185.563,47.212 185.679 C 47.179 185.961,44.555 189.886,43.500 191.231 C 43.036 191.823,42.198 192.877,41.638 193.575 C 40.226 195.335,40.245 195.308,39.400 196.877 C 38.983 197.649,37.824 199.515,36.823 201.024 C 35.822 202.532,34.519 204.993,33.927 206.492 C 33.336 207.992,32.495 210.063,32.058 211.094 C 29.632 216.827,31.579 223.554,36.355 225.941 L 38.225 226.875 44.869 226.875 C 50.824 226.875,51.896 226.792,55.209 226.076 C 57.243 225.636,59.820 225.150,60.938 224.995 C 62.055 224.841,64.499 224.357,66.369 223.920 C 68.239 223.483,70.374 223.125,71.115 223.125 C 71.855 223.125,73.402 222.907,74.552 222.640 C 76.801 222.118,77.938 222.231,79.688 223.151 C 81.477 224.091,81.595 224.225,81.913 225.658 C 82.279 227.311,83.497 230.438,84.726 232.882 C 85.220 233.865,85.625 234.826,85.625 235.017 C 85.625 235.845,87.720 240.031,89.185 242.131 C 90.063 243.390,91.226 245.147,91.770 246.038 C 94.641 250.739,95.645 252.102,97.495 253.808 C 98.609 254.835,99.945 256.270,100.463 256.997 C 100.982 257.724,101.969 258.886,102.656 259.578 C 103.344 260.271,104.738 261.704,105.755 262.762 C 106.772 263.821,107.728 264.688,107.880 264.688 C 108.032 264.688,108.957 265.511,109.937 266.518 C 110.917 267.526,112.614 268.948,113.708 269.680 C 114.802 270.411,116.912 271.982,118.396 273.171 C 119.880 274.360,121.706 275.694,122.454 276.135 C 123.202 276.577,124.087 277.212,124.421 277.546 C 124.756 277.881,126.093 278.639,127.393 279.231 C 128.693 279.824,130.247 280.739,130.847 281.265 C 131.446 281.792,133.153 282.798,134.640 283.501 C 136.127 284.205,137.419 284.895,137.512 285.036 C 137.604 285.176,138.589 285.523,139.699 285.807 C 140.810 286.090,142.268 286.601,142.940 286.942 C 143.611 287.284,144.853 287.769,145.700 288.020 C 146.546 288.271,147.700 288.736,148.264 289.053 C 148.828 289.370,149.555 289.777,149.879 289.959 C 152.268 291.295,155.538 292.461,157.841 292.798 C 159.286 293.009,162.086 293.603,164.063 294.118 C 166.039 294.632,168.992 295.401,170.625 295.827 C 172.506 296.316,175.082 296.691,177.656 296.849 C 180.070 296.998,183.194 297.437,185.354 297.932 L 188.988 298.765 207.229 298.675 L 225.469 298.585 229.173 297.730 C 231.210 297.260,233.766 296.875,234.851 296.875 C 237.261 296.875,241.637 295.875,244.375 294.698 C 245.492 294.218,248.164 293.437,250.313 292.961 C 252.582 292.459,255.594 291.512,257.500 290.701 C 262.961 288.377,268.850 286.046,269.844 285.814 C 270.810 285.589,272.903 284.826,275.983 283.575 C 276.954 283.181,278.948 282.076,280.416 281.119 C 281.883 280.163,283.480 279.205,283.964 278.991 C 284.448 278.777,285.957 277.933,287.317 277.114 C 288.678 276.295,289.897 275.625,290.027 275.625 C 290.341 275.625,297.898 270.508,299.688 269.084 C 303.946 265.695,306.122 263.717,309.241 260.399 C 313.858 255.487,314.674 254.532,316.038 252.439 C 316.677 251.459,317.398 250.459,317.641 250.216 C 317.884 249.973,318.886 248.524,319.868 246.996 C 320.849 245.469,322.176 243.586,322.816 242.813 C 327.272 237.429,328.438 235.032,328.438 231.250 C 328.438 224.787,332.755 221.595,339.825 222.831 C 344.528 223.654,348.387 224.536,349.589 225.063 C 352.624 226.394,356.319 226.865,363.759 226.870 L 370.799 226.875 372.991 225.824 C 377.746 223.546,379.337 220.435,378.318 215.411 C 378.080 214.240,377.888 213.070,377.891 212.813 C 377.907 211.396,377.340 209.680,375.940 206.909 C 375.079 205.206,374.375 203.743,374.375 203.657 C 374.375 203.433,372.252 200.042,370.776 197.908 C 370.085 196.910,369.243 195.461,368.904 194.688 C 367.137 190.659,360.476 181.018,358.373 179.445 C 358.080 179.226,356.926 177.679,355.809 176.007 C 352.418 170.932,350.661 168.624,345.625 162.632 C 343.820 160.485,341.519 157.608,340.512 156.239 C 338.500 153.506,335.006 149.877,329.993 145.313 C 326.298 141.948,321.948 137.564,320.691 135.938 C 320.226 135.336,319.291 134.352,318.613 133.750 C 317.935 133.148,317.161 132.388,316.893 132.060 C 315.767 130.680,314.797 129.755,314.083 129.379 C 307.720 126.029,295.342 112.450,295.316 108.791 C 295.314 108.555,294.949 107.782,294.505 107.072 C 292.494 103.860,290.972 100.815,290.770 99.602 C 290.649 98.876,290.305 97.578,290.006 96.719 C 289.707 95.859,289.147 93.750,288.762 92.031 C 288.377 90.313,287.807 88.063,287.494 87.031 C 287.182 86.000,286.643 83.891,286.297 82.344 C 285.951 80.797,285.510 78.828,285.318 77.969 C 285.125 77.109,284.825 75.723,284.651 74.888 C 284.245 72.939,282.651 68.023,281.901 66.406 C 281.052 64.574,280.044 61.175,279.386 57.929 C 278.940 55.726,278.375 54.246,276.904 51.437 C 275.857 49.436,275.000 47.429,275.000 46.978 C 275.000 46.270,273.877 44.578,272.396 43.055 C 271.123 41.744,268.798 38.694,268.160 37.495 C 267.652 36.541,266.105 34.969,263.316 32.574 C 261.063 30.638,258.380 28.278,257.354 27.330 C 256.329 26.382,254.711 25.238,253.760 24.789 C 252.809 24.339,251.539 23.668,250.938 23.297 C 250.336 22.926,248.940 22.237,247.836 21.765 C 246.732 21.294,245.255 20.526,244.555 20.059 C 241.308 17.895,233.734 15.627,229.741 15.623 C 228.501 15.622,225.693 15.179,222.813 14.531 C 219.274 13.735,217.211 13.439,215.156 13.433 C 213.609 13.429,210.938 13.220,209.219 12.969 C 203.913 12.195,199.352 12.134,195.402 12.784 M191.541 58.276 C 195.321 59.255,198.981 61.385,201.758 64.222 C 202.639 65.122,204.227 66.346,205.287 66.944 C 206.346 67.541,207.977 68.765,208.911 69.664 L 210.609 71.300 211.320 70.542 C 211.711 70.126,212.945 69.155,214.063 68.385 C 216.405 66.770,217.316 66.258,216.378 67.082 C 214.184 69.012,213.738 71.748,215.160 74.548 C 218.966 82.041,233.388 80.009,233.431 71.973 C 233.441 70.055,232.884 68.688,232.436 69.531 C 230.054 74.011,222.178 73.668,220.929 69.030 C 219.557 63.937,227.061 61.749,234.671 65.023 C 240.430 67.500,240.818 75.071,235.494 81.064 C 233.570 83.230,235.335 85.787,239.375 86.688 C 240.664 86.975,242.563 87.475,243.594 87.798 C 244.625 88.121,246.027 88.480,246.709 88.595 C 249.318 89.035,253.981 91.906,255.375 93.931 C 258.407 98.338,256.317 101.154,246.094 106.437 C 235.822 111.745,234.763 112.405,233.925 114.026 C 233.249 115.334,234.380 116.851,236.950 118.084 C 238.026 118.600,240.242 119.656,241.875 120.431 C 249.420 124.009,254.872 127.545,263.014 134.138 C 271.806 141.259,283.541 156.617,288.505 167.500 C 294.396 180.417,297.354 198.725,295.153 208.652 C 292.925 218.704,289.526 226.941,285.247 232.656 C 279.481 240.358,273.078 246.314,264.531 251.924 C 263.026 252.912,256.659 256.563,256.441 256.563 C 256.356 256.563,255.118 257.110,253.690 257.779 C 244.742 261.970,237.357 264.079,223.594 266.376 C 215.653 267.701,198.898 267.798,190.469 266.568 C 183.508 265.553,183.732 265.597,175.938 263.703 C 163.277 260.626,150.103 253.995,139.531 245.378 C 134.864 241.573,129.316 235.198,125.877 229.688 C 118.825 218.387,116.417 207.835,117.462 192.813 C 117.887 186.707,120.210 177.002,122.163 173.172 C 122.520 172.472,122.813 171.750,122.813 171.566 C 122.813 171.382,123.289 170.217,123.872 168.975 C 124.455 167.734,125.313 165.875,125.778 164.844 C 127.565 160.884,133.937 150.839,136.014 148.708 C 136.242 148.473,137.240 147.260,138.231 146.011 C 145.960 136.277,161.273 124.550,172.656 119.649 C 177.938 117.375,179.688 116.108,179.688 114.559 C 179.688 113.339,177.042 111.180,174.688 110.480 C 174.258 110.352,171.959 109.172,169.578 107.858 C 167.198 106.544,164.418 105.017,163.400 104.464 C 152.731 98.669,154.440 91.255,167.169 88.107 C 173.311 86.588,174.074 84.975,170.473 81.123 C 159.605 69.498,174.117 53.761,191.541 58.276 M186.357 63.702 C 180.584 65.697,179.098 71.806,183.508 75.413 C 188.388 79.405,197.014 78.017,199.491 72.843 C 200.355 71.038,200.209 70.565,198.984 71.196 C 195.777 72.847,190.736 70.948,190.158 67.870 C 189.965 66.840,190.709 64.387,191.219 64.368 C 191.322 64.364,191.758 64.086,192.188 63.750 L 192.969 63.139 190.469 63.142 C 188.890 63.144,187.375 63.351,186.357 63.702 " stroke="none" fill="#040404" fill-rule="evenodd"></path><path id="path1" d="M0.000 156.250 L 0.000 312.500 200.000 312.500 L 400.000 312.500 400.000 156.250 L 400.000 0.000 200.000 0.000 L 0.000 0.000 0.000 156.250 M209.697 12.825 C 212.194 13.162,215.207 13.438,216.393 13.438 C 217.578 13.438,220.598 13.846,223.102 14.346 C 225.607 14.846,228.852 15.332,230.313 15.425 C 234.377 15.686,240.686 17.526,244.043 19.430 C 244.999 19.972,248.085 21.592,250.901 23.030 C 255.475 25.366,256.324 25.930,258.869 28.326 C 260.437 29.802,262.952 32.007,264.460 33.228 C 266.509 34.886,267.642 36.109,268.946 38.069 C 269.906 39.511,271.345 41.414,272.145 42.299 C 274.138 44.502,274.811 45.543,275.309 47.188 C 275.543 47.961,276.537 50.141,277.518 52.031 C 278.876 54.648,279.392 56.028,279.677 57.813 C 279.883 59.102,280.550 61.563,281.158 63.281 C 284.325 72.231,285.148 75.018,286.230 80.469 C 286.872 83.703,287.453 86.139,287.908 87.500 C 288.166 88.273,288.692 90.313,289.076 92.031 C 289.460 93.750,290.017 95.859,290.314 96.719 C 290.611 97.578,290.954 98.844,291.076 99.531 C 291.294 100.753,291.806 101.803,294.202 105.938 C 294.850 107.055,295.557 108.552,295.774 109.265 C 297.135 113.728,304.791 122.404,311.727 127.344 C 314.625 129.408,318.187 132.778,322.813 137.835 C 323.930 139.056,325.750 140.921,326.858 141.981 C 331.121 146.056,333.321 148.094,334.375 148.946 C 334.977 149.433,335.891 150.318,336.406 150.914 C 339.295 154.254,339.886 154.968,340.313 155.632 C 340.570 156.034,342.047 157.849,343.595 159.666 C 345.143 161.482,347.243 164.023,348.263 165.313 C 349.283 166.602,350.630 168.289,351.256 169.063 C 351.882 169.836,353.605 172.227,355.085 174.375 C 356.565 176.523,358.101 178.633,358.499 179.063 C 360.722 181.465,365.000 186.919,365.000 187.352 C 365.000 187.427,365.694 188.521,366.542 189.783 C 367.389 191.045,368.460 192.911,368.922 193.929 C 369.383 194.948,370.687 197.188,371.820 198.906 C 374.523 203.006,377.760 209.579,378.139 211.737 C 378.303 212.672,378.578 214.234,378.750 215.208 C 379.726 220.736,377.494 224.456,371.934 226.569 C 368.081 228.033,354.662 227.273,349.679 225.309 C 347.075 224.283,339.351 222.813,336.563 222.813 C 331.909 222.813,328.783 226.228,328.739 231.361 C 328.707 235.070,327.574 237.444,323.339 242.673 C 321.956 244.380,320.215 246.874,316.369 252.656 C 315.569 253.859,314.335 255.468,313.629 256.230 C 303.349 267.324,296.988 272.308,285.000 278.663 C 283.883 279.256,281.844 280.491,280.469 281.410 C 279.094 282.328,276.984 283.453,275.781 283.910 C 274.578 284.367,273.102 284.939,272.500 285.181 C 271.898 285.423,270.211 286.023,268.750 286.516 C 265.621 287.570,262.105 288.895,260.765 289.523 C 255.932 291.790,253.302 292.660,248.009 293.746 C 247.000 293.953,245.302 294.514,244.236 294.992 C 241.765 296.101,239.688 296.564,235.781 296.876 C 234.063 297.014,231.003 297.491,228.983 297.938 L 225.310 298.750 206.625 298.750 L 187.939 298.750 184.204 297.929 C 182.150 297.478,178.781 296.994,176.719 296.855 C 173.196 296.617,171.526 296.285,163.594 294.243 C 161.875 293.801,159.766 293.354,158.906 293.249 C 156.245 292.926,154.049 292.185,150.156 290.299 C 146.494 288.524,144.895 287.872,140.503 286.363 C 137.677 285.392,131.616 282.352,130.625 281.408 C 130.195 280.999,128.578 280.017,127.031 279.226 C 124.020 277.687,119.984 274.973,117.383 272.739 C 116.502 271.982,114.723 270.652,113.430 269.782 C 112.138 268.913,110.559 267.625,109.922 266.921 C 109.286 266.216,108.164 265.205,107.429 264.674 C 105.917 263.579,101.577 259.022,100.140 257.018 C 99.615 256.287,98.707 255.287,98.122 254.797 C 97.538 254.307,96.741 253.614,96.353 253.256 C 95.513 252.481,93.255 249.217,92.048 247.031 C 91.573 246.172,90.707 244.883,90.124 244.166 C 89.540 243.450,89.063 242.758,89.062 242.628 C 89.062 242.499,88.857 242.165,88.605 241.887 C 87.853 241.056,85.997 237.305,85.485 235.582 C 85.222 234.697,84.674 233.396,84.267 232.690 C 83.861 231.984,83.272 230.703,82.960 229.844 C 82.648 228.984,82.289 228.141,82.163 227.969 C 82.037 227.797,81.834 226.986,81.712 226.166 C 81.292 223.346,78.511 222.087,74.521 222.908 C 73.106 223.199,71.355 223.438,70.629 223.438 C 69.903 223.438,68.515 223.630,67.545 223.866 C 66.575 224.101,64.656 224.514,63.281 224.784 C 61.906 225.053,58.883 225.664,56.563 226.143 C 51.130 227.262,39.188 227.603,37.215 226.695 C 32.447 224.500,30.928 221.991,30.951 216.349 C 30.960 214.286,31.130 212.542,31.388 211.875 C 33.900 205.380,35.088 202.867,36.559 200.938 C 37.018 200.336,37.867 199.000,38.445 197.969 C 39.770 195.605,41.282 193.408,42.961 191.406 C 43.682 190.547,45.369 188.107,46.709 185.984 C 48.050 183.861,49.631 181.491,50.222 180.716 C 50.813 179.941,51.898 178.374,52.632 177.232 C 53.366 176.090,55.429 173.629,57.218 171.763 C 59.460 169.423,60.822 167.694,61.608 166.190 C 63.379 162.799,68.035 157.608,75.852 150.313 C 77.417 148.852,78.942 147.247,79.240 146.746 C 79.821 145.772,82.134 143.421,86.119 139.754 C 87.480 138.502,89.367 136.732,90.313 135.821 C 91.258 134.909,92.664 133.735,93.438 133.211 C 94.211 132.687,95.336 131.709,95.938 131.038 C 96.539 130.366,97.515 129.472,98.106 129.049 C 98.697 128.627,99.622 127.859,100.161 127.344 C 102.334 125.265,105.299 122.809,107.190 121.519 C 109.373 120.031,113.125 116.666,113.125 116.197 C 113.125 115.815,115.416 112.425,116.890 110.625 C 118.867 108.212,120.055 104.864,121.141 98.644 C 121.227 98.155,121.546 97.171,121.851 96.456 C 122.156 95.741,122.505 94.594,122.626 93.906 C 122.748 93.219,123.453 91.039,124.194 89.063 C 125.386 85.885,125.701 84.496,126.429 79.219 C 126.731 77.033,126.892 76.162,127.040 75.923 C 127.570 75.067,129.116 70.263,129.199 69.219 C 129.545 64.834,132.977 55.312,135.688 51.212 C 136.667 49.730,137.976 47.480,138.596 46.212 C 140.024 43.288,140.819 41.984,142.188 40.319 C 142.789 39.587,143.409 38.759,143.565 38.479 C 144.676 36.484,151.410 29.558,153.535 28.225 C 154.255 27.773,155.396 26.933,156.072 26.358 C 156.747 25.783,157.423 25.313,157.573 25.313 C 157.724 25.313,158.703 24.731,159.750 24.020 C 161.887 22.569,167.191 20.000,168.050 20.000 C 168.359 20.000,168.888 19.809,169.227 19.576 C 169.955 19.077,173.542 17.813,174.232 17.813 C 174.496 17.813,175.234 17.546,175.872 17.221 C 176.510 16.896,178.367 16.337,180.000 15.980 C 185.908 14.685,191.105 13.476,191.632 13.273 C 194.756 12.066,202.624 11.872,209.697 12.825 M179.755 58.443 C 167.515 61.650,163.119 73.085,170.959 81.324 C 174.369 84.908,173.434 86.713,167.344 88.302 C 161.740 89.763,157.582 92.558,156.835 95.364 C 155.880 98.952,157.849 101.253,165.313 105.268 C 167.289 106.332,169.609 107.624,170.469 108.139 C 171.328 108.655,172.242 109.164,172.500 109.270 C 181.729 113.083,182.335 115.926,174.585 119.052 C 171.443 120.320,166.231 122.931,164.475 124.118 C 163.756 124.603,163.098 125.000,163.011 125.000 C 162.770 125.000,156.576 129.304,155.156 130.458 C 154.469 131.017,152.922 132.221,151.719 133.134 C 148.170 135.827,140.404 143.482,138.125 146.533 C 137.695 147.108,137.133 147.808,136.875 148.089 C 134.234 150.960,128.263 160.261,126.019 165.000 C 122.209 173.043,120.518 177.715,119.006 184.375 L 117.764 189.844 117.731 198.594 C 117.704 205.789,117.793 207.760,118.229 209.688 C 118.522 210.977,118.984 213.016,119.257 214.219 C 119.530 215.422,120.090 217.148,120.502 218.055 C 120.913 218.962,121.250 219.845,121.250 220.017 C 121.250 220.188,121.912 221.696,122.722 223.367 C 128.629 235.567,137.155 244.518,151.406 253.482 C 157.840 257.529,169.618 262.046,180.156 264.507 C 181.359 264.788,182.625 265.088,182.969 265.174 C 199.329 269.258,227.964 267.260,245.781 260.792 C 253.270 258.073,265.822 251.640,267.500 249.661 C 267.586 249.560,268.711 248.694,270.000 247.736 C 280.203 240.159,290.759 226.131,292.517 217.813 C 292.929 215.866,294.024 212.068,294.590 210.625 C 295.375 208.624,295.599 191.850,294.881 188.750 C 291.830 175.562,289.078 168.226,284.154 160.154 C 283.158 158.522,281.992 156.579,281.563 155.837 C 278.775 151.022,269.592 140.238,264.688 136.020 C 263.398 134.911,261.992 133.694,261.563 133.316 C 258.508 130.625,252.510 126.447,248.125 123.956 C 247.008 123.322,245.883 122.673,245.625 122.515 C 244.768 121.989,242.069 120.692,238.750 119.210 C 230.210 115.398,231.110 113.739,245.726 106.352 C 252.576 102.890,254.829 101.171,256.005 98.514 L 256.613 97.140 255.777 95.431 C 253.770 91.330,250.736 89.735,239.836 87.051 C 234.203 85.664,233.118 83.713,235.928 80.021 C 242.324 71.616,238.456 63.939,227.813 63.914 C 223.034 63.904,220.965 65.382,221.322 68.551 C 221.861 73.332,229.801 73.863,231.886 69.258 L 232.435 68.047 233.014 68.932 C 233.939 70.343,233.828 73.917,232.813 75.425 C 229.909 79.740,222.320 80.891,217.615 77.730 C 214.521 75.651,212.879 71.163,214.422 68.997 L 215.141 67.987 213.899 68.752 C 213.215 69.174,212.209 70.005,211.661 70.600 L 210.666 71.683 208.922 69.982 C 207.963 69.047,206.231 67.744,205.074 67.087 C 203.916 66.430,202.262 65.165,201.399 64.275 C 196.094 58.804,187.359 56.451,179.755 58.443 M193.273 63.112 C 193.375 63.276,193.034 63.630,192.516 63.898 C 187.255 66.619,193.081 73.408,198.587 70.973 C 200.423 70.160,200.313 70.152,200.313 71.106 C 200.313 76.158,191.254 79.821,185.554 77.074 C 176.763 72.838,180.243 62.869,190.528 62.824 C 191.936 62.818,193.171 62.947,193.273 63.112 " stroke="none" fill="#fbfbfb" fill-rule="evenodd"></path><path id="path2" d="M257.031 26.875 C 257.703 27.563,258.322 28.125,258.408 28.125 C 258.494 28.125,258.015 27.563,257.344 26.875 C 256.672 26.188,256.053 25.625,255.967 25.625 C 255.881 25.625,256.360 26.188,257.031 26.875 M138.203 46.953 C 137.867 47.871,137.875 47.911,138.291 47.362 C 138.688 46.837,138.923 45.938,138.662 45.938 C 138.614 45.938,138.407 46.395,138.203 46.953 M184.609 57.726 C 185.168 57.795,186.082 57.795,186.641 57.726 C 187.199 57.657,186.742 57.600,185.625 57.600 C 184.508 57.600,184.051 57.657,184.609 57.726 M226.957 63.662 C 227.432 63.734,228.136 63.732,228.520 63.657 C 228.904 63.583,228.516 63.525,227.656 63.527 C 226.797 63.529,226.482 63.590,226.957 63.662 M182.637 65.703 L 181.719 66.719 182.734 65.801 C 183.293 65.296,183.750 64.839,183.750 64.785 C 183.750 64.544,183.492 64.756,182.637 65.703 M190.385 67.188 C 190.385 67.789,190.449 68.035,190.528 67.734 C 190.607 67.434,190.607 66.941,190.528 66.641 C 190.449 66.340,190.385 66.586,190.385 67.188 M129.411 67.553 C 129.391 67.839,129.294 68.331,129.195 68.646 C 129.025 69.189,129.034 69.190,129.372 68.662 C 129.569 68.356,129.666 67.864,129.589 67.568 C 129.461 67.084,129.444 67.083,129.411 67.553 M221.010 68.125 C 221.010 68.727,221.074 68.973,221.153 68.672 C 221.232 68.371,221.232 67.879,221.153 67.578 C 221.074 67.277,221.010 67.523,221.010 68.125 M231.875 69.299 C 231.875 69.486,231.493 70.107,231.027 70.679 C 230.329 71.534,230.306 71.608,230.899 71.097 C 231.742 70.371,232.316 69.399,232.057 69.140 C 231.957 69.040,231.875 69.112,231.875 69.299 M213.870 69.825 C 213.775 70.073,213.752 70.530,213.820 70.841 C 213.896 71.194,214.003 71.025,214.104 70.391 C 214.275 69.326,214.164 69.060,213.870 69.825 M199.933 71.250 C 200.009 71.766,200.125 72.188,200.192 72.188 C 200.258 72.188,200.313 71.766,200.313 71.250 C 200.313 70.734,200.196 70.313,200.054 70.313 C 199.912 70.313,199.858 70.734,199.933 71.250 M215.313 75.723 C 215.313 75.777,215.770 76.234,216.328 76.738 L 217.344 77.656 216.426 76.641 C 215.570 75.694,215.313 75.481,215.313 75.723 M285.503 78.281 C 285.760 79.430,285.939 79.680,285.933 78.880 C 285.930 78.551,285.785 78.070,285.611 77.813 C 285.379 77.470,285.350 77.597,285.503 78.281 M223.047 79.596 C 223.434 79.670,224.066 79.670,224.453 79.596 C 224.840 79.521,224.523 79.460,223.750 79.460 C 222.977 79.460,222.660 79.521,223.047 79.596 M293.594 105.313 C 293.860 105.828,294.149 106.250,294.235 106.250 C 294.321 106.250,294.173 105.828,293.906 105.313 C 293.640 104.797,293.351 104.375,293.265 104.375 C 293.179 104.375,293.327 104.797,293.594 105.313 M104.046 123.984 L 102.969 125.156 104.141 124.079 C 104.785 123.487,105.313 122.960,105.313 122.907 C 105.313 122.669,105.048 122.894,104.046 123.984 M142.012 141.953 L 141.094 142.969 142.109 142.051 C 143.056 141.195,143.269 140.938,143.027 140.938 C 142.973 140.938,142.516 141.395,142.012 141.953 M270.938 142.344 C 271.521 142.945,272.068 143.438,272.154 143.438 C 272.240 143.438,271.833 142.945,271.250 142.344 C 270.667 141.742,270.120 141.250,270.034 141.250 C 269.948 141.250,270.354 141.742,270.938 142.344 M330.938 146.035 C 330.938 146.089,331.395 146.546,331.953 147.051 L 332.969 147.969 332.051 146.953 C 331.195 146.006,330.938 145.794,330.938 146.035 M65.921 160.234 L 64.844 161.406 66.016 160.329 C 67.106 159.327,67.331 159.063,67.093 159.063 C 67.040 159.063,66.513 159.590,65.921 160.234 M58.895 170.078 L 57.344 171.719 58.984 170.168 C 59.887 169.315,60.625 168.577,60.625 168.527 C 60.625 168.294,60.335 168.554,58.895 170.078 M56.074 172.891 L 55.156 173.906 56.172 172.988 C 57.119 172.133,57.331 171.875,57.090 171.875 C 57.036 171.875,56.579 172.332,56.074 172.891 M54.199 175.078 L 53.281 176.094 54.297 175.176 C 55.244 174.320,55.456 174.063,55.215 174.063 C 55.161 174.063,54.704 174.520,54.199 175.078 M295.448 199.219 C 295.448 203.516,295.492 205.317,295.546 203.221 C 295.600 201.126,295.600 197.610,295.546 195.409 C 295.492 193.207,295.448 194.922,295.448 199.219 M31.613 211.107 C 31.090 212.256,31.190 212.501,31.756 211.457 C 32.020 210.969,32.178 210.511,32.106 210.440 C 32.035 210.368,31.813 210.669,31.613 211.107 M378.198 213.125 C 378.198 213.727,378.262 213.973,378.340 213.672 C 378.419 213.371,378.419 212.879,378.340 212.578 C 378.262 212.277,378.198 212.523,378.198 213.125 M378.823 217.188 C 378.823 217.789,378.887 218.035,378.965 217.734 C 379.044 217.434,379.044 216.941,378.965 216.641 C 378.887 216.340,378.823 216.586,378.823 217.188 M335.865 222.726 C 336.427 222.796,337.270 222.795,337.740 222.723 C 338.210 222.652,337.750 222.595,336.719 222.597 C 335.688 222.599,335.303 222.657,335.865 222.726 M70.391 223.349 C 70.863 223.420,71.637 223.420,72.109 223.349 C 72.582 223.277,72.195 223.219,71.250 223.219 C 70.305 223.219,69.918 223.277,70.391 223.349 M341.016 223.340 C 341.316 223.419,341.809 223.419,342.109 223.340 C 342.410 223.262,342.164 223.198,341.563 223.198 C 340.961 223.198,340.715 223.262,341.016 223.340 M311.074 258.828 L 310.156 259.844 311.172 258.926 C 311.730 258.421,312.188 257.964,312.188 257.910 C 312.188 257.669,311.930 257.881,311.074 258.828 M102.813 260.156 C 103.396 260.758,103.943 261.250,104.029 261.250 C 104.115 261.250,103.708 260.758,103.125 260.156 C 102.542 259.555,101.995 259.063,101.909 259.063 C 101.823 259.063,102.229 259.555,102.813 260.156 M308.887 261.016 L 307.969 262.031 308.984 261.113 C 309.543 260.609,310.000 260.152,310.000 260.098 C 310.000 259.856,309.742 260.069,308.887 261.016 M305.625 264.219 C 304.866 264.992,304.315 265.625,304.401 265.625 C 304.487 265.625,305.178 264.992,305.938 264.219 C 306.697 263.445,307.247 262.813,307.161 262.813 C 307.075 262.813,306.384 263.445,305.625 264.219 M196.177 267.101 C 196.739 267.171,197.583 267.170,198.052 267.098 C 198.522 267.027,198.063 266.970,197.031 266.972 C 196.000 266.974,195.616 267.032,196.177 267.101 M214.927 267.101 C 215.489 267.171,216.333 267.170,216.802 267.098 C 217.272 267.027,216.813 266.970,215.781 266.972 C 214.750 266.974,214.366 267.032,214.927 267.101 " stroke="none" fill="#a1a1a1" fill-rule="evenodd"></path><path id="path3" d="M228.040 15.538 C 228.595 15.607,229.579 15.608,230.227 15.541 C 230.876 15.473,230.422 15.416,229.219 15.415 C 228.016 15.414,227.485 15.469,228.040 15.538 M149.063 32.344 C 148.303 33.117,147.753 33.750,147.839 33.750 C 147.925 33.750,148.616 33.117,149.375 32.344 C 150.134 31.570,150.685 30.938,150.599 30.938 C 150.513 30.938,149.822 31.570,149.063 32.344 M189.453 63.036 C 189.926 63.108,190.699 63.108,191.172 63.036 C 191.645 62.965,191.258 62.906,190.313 62.906 C 189.367 62.906,188.980 62.965,189.453 63.036 M215.938 67.111 C 215.508 67.411,215.119 67.867,215.074 68.125 C 215.013 68.469,215.110 68.441,215.439 68.022 C 215.685 67.707,216.144 67.254,216.459 67.016 C 217.286 66.389,216.862 66.467,215.938 67.111 M129.418 69.063 C 129.389 69.492,129.294 70.195,129.206 70.625 L 129.045 71.406 129.381 70.637 C 129.565 70.214,129.661 69.511,129.592 69.075 L 129.469 68.281 129.418 69.063 M232.160 69.453 C 231.961 69.840,231.429 70.578,230.977 71.094 L 230.156 72.031 231.168 71.117 C 231.725 70.614,232.262 69.944,232.363 69.628 C 232.463 69.312,232.697 69.148,232.883 69.262 C 233.085 69.387,233.131 69.326,232.999 69.111 C 232.686 68.606,232.572 68.652,232.160 69.453 M180.698 70.313 C 180.698 70.914,180.762 71.160,180.840 70.859 C 180.919 70.559,180.919 70.066,180.840 69.766 C 180.762 69.465,180.698 69.711,180.698 70.313 M214.135 70.625 C 214.135 71.227,214.199 71.473,214.278 71.172 C 214.357 70.871,214.357 70.379,214.278 70.078 C 214.199 69.777,214.135 70.023,214.135 70.625 M239.156 72.500 C 239.156 73.445,239.215 73.832,239.286 73.359 C 239.358 72.887,239.358 72.113,239.286 71.641 C 239.215 71.168,239.156 71.555,239.156 72.500 M195.547 71.783 C 195.934 71.858,196.566 71.858,196.953 71.783 C 197.340 71.709,197.023 71.648,196.250 71.648 C 195.477 71.648,195.160 71.709,195.547 71.783 M226.176 72.721 C 226.564 72.796,227.127 72.793,227.426 72.715 C 227.724 72.636,227.406 72.575,226.719 72.579 C 226.031 72.582,225.787 72.646,226.176 72.721 M126.948 77.500 C 126.948 78.102,127.012 78.348,127.090 78.047 C 127.169 77.746,127.169 77.254,127.090 76.953 C 127.012 76.652,126.948 76.898,126.948 77.500 M121.111 99.549 C 120.993 100.176,120.960 100.751,121.036 100.828 C 121.112 100.904,121.271 100.454,121.389 99.826 C 121.507 99.199,121.540 98.624,121.464 98.547 C 121.388 98.471,121.229 98.921,121.111 99.549 M89.824 136.641 L 88.906 137.656 89.922 136.738 C 90.480 136.234,90.938 135.777,90.938 135.723 C 90.938 135.481,90.680 135.694,89.824 136.641 M320.625 136.035 C 320.625 136.089,321.082 136.546,321.641 137.051 L 322.656 137.969 321.738 136.953 C 320.883 136.006,320.625 135.794,320.625 136.035 M81.387 144.453 L 80.469 145.469 81.484 144.551 C 82.431 143.695,82.644 143.438,82.402 143.438 C 82.348 143.438,81.891 143.895,81.387 144.453 M335.156 150.000 C 335.828 150.688,336.447 151.250,336.533 151.250 C 336.619 151.250,336.140 150.688,335.469 150.000 C 334.797 149.313,334.178 148.750,334.092 148.750 C 334.006 148.750,334.485 149.313,335.156 150.000 M65.449 161.016 L 64.531 162.031 65.547 161.113 C 66.494 160.258,66.706 160.000,66.465 160.000 C 66.411 160.000,65.954 160.457,65.449 161.016 M56.074 173.203 L 55.156 174.219 56.172 173.301 C 57.119 172.445,57.331 172.188,57.090 172.188 C 57.036 172.188,56.579 172.645,56.074 173.203 M117.607 192.031 C 117.608 193.406,117.663 193.930,117.729 193.195 C 117.795 192.460,117.794 191.335,117.727 190.695 C 117.660 190.055,117.606 190.656,117.607 192.031 M117.311 199.219 C 117.311 201.625,117.360 202.568,117.420 201.314 C 117.479 200.061,117.479 198.092,117.419 196.939 C 117.359 195.787,117.310 196.813,117.311 199.219 M117.600 206.250 C 117.600 207.367,117.657 207.824,117.726 207.266 C 117.795 206.707,117.795 205.793,117.726 205.234 C 117.657 204.676,117.600 205.133,117.600 206.250 M31.040 216.719 C 31.041 217.922,31.098 218.376,31.166 217.727 C 31.233 217.079,31.232 216.095,31.163 215.540 C 31.094 214.985,31.039 215.516,31.040 216.719 M376.074 223.828 L 375.156 224.844 376.172 223.926 C 377.119 223.070,377.331 222.813,377.090 222.813 C 377.036 222.813,376.579 223.270,376.074 223.828 M41.328 227.108 C 43.004 227.164,45.746 227.164,47.422 227.108 C 49.098 227.052,47.727 227.006,44.375 227.006 C 41.023 227.006,39.652 227.052,41.328 227.108 M360.547 227.108 C 362.309 227.164,365.191 227.164,366.953 227.108 C 368.715 227.052,367.273 227.007,363.750 227.007 C 360.227 227.007,358.785 227.052,360.547 227.108 M278.579 240.391 L 277.344 241.719 278.672 240.483 C 279.907 239.335,280.144 239.063,279.907 239.063 C 279.856 239.063,279.258 239.660,278.579 240.391 M137.188 243.223 C 137.188 243.277,137.645 243.734,138.203 244.238 L 139.219 245.156 138.301 244.141 C 137.445 243.194,137.188 242.981,137.188 243.223 M96.406 253.125 C 97.078 253.813,97.697 254.375,97.783 254.375 C 97.869 254.375,97.390 253.813,96.719 253.125 C 96.047 252.438,95.428 251.875,95.342 251.875 C 95.256 251.875,95.735 252.438,96.406 253.125 M313.887 255.391 L 312.969 256.406 313.984 255.488 C 314.543 254.984,315.000 254.527,315.000 254.473 C 315.000 254.231,314.742 254.444,313.887 255.391 M311.079 258.516 L 309.844 259.844 311.172 258.608 C 312.407 257.460,312.644 257.188,312.407 257.188 C 312.356 257.188,311.758 257.785,311.079 258.516 M308.574 261.016 L 307.656 262.031 308.672 261.113 C 309.230 260.609,309.688 260.152,309.688 260.098 C 309.688 259.856,309.430 260.069,308.574 261.016 M220.391 266.778 C 220.691 266.857,221.184 266.857,221.484 266.778 C 221.785 266.699,221.539 266.635,220.938 266.635 C 220.336 266.635,220.090 266.699,220.391 266.778 M202.734 267.420 C 204.324 267.477,206.926 267.477,208.516 267.420 C 210.105 267.364,208.805 267.317,205.625 267.317 C 202.445 267.317,201.145 267.364,202.734 267.420 " stroke="none" fill="#747474" fill-rule="evenodd"></path><path id="path4" d="M378.823 219.063 C 378.823 219.664,378.887 219.910,378.965 219.609 C 379.044 219.309,379.044 218.816,378.965 218.516 C 378.887 218.215,378.823 218.461,378.823 219.063 M328.516 231.094 C 328.520 231.781,328.584 232.026,328.659 231.637 C 328.733 231.248,328.730 230.686,328.652 230.387 C 328.574 230.088,328.513 230.406,328.516 231.094 " stroke="none" fill="#7c7c7c" fill-rule="evenodd"></path></g></svg>