<?xml version="1.0" encoding="utf-8"?>
<!-- Generator: Adobe Illustrator 23.0.6, SVG Export Plug-In . SVG Version: 6.00 Build 0)  -->
<svg version="1.1" id="Layer_1" xmlns="http://www.w3.org/2000/svg" xmlns:xlink="http://www.w3.org/1999/xlink" x="0px" y="0px"
	 viewBox="0 0 595.28 841.89" style="enable-background:new 0 0 595.28 841.89;" xml:space="preserve">
<g>
	<g>
		<path d="M-98,701.89c11.58-7.39,24.1-13.18,34.87-22.02c6.53-5.36,15.2-7.51,23.13-10.38c23.76-8.6,45.09-21.94,67.36-33.45
			c20.08-10.38,40.27-20.51,61.48-28.52c5.83-2.2,11.21-5.59,17.29-7.39c4.28-1.27,8.18-3.5,12.59-4.65
			c5.26-1.37,10.14-3.6,13.8-8.29c6.07-7.77,15.68-9.65,24.24-13.07c3.15-1.26,3.81-3.08,4.47-6.15c5.08-23.87-1.8-46.09-8.79-68.37
			c-0.68-2.18-1.98-2.71-3.77-3.34c-9.13-3.22-12.17-8.26-10.81-17.81c0.17-1.2,0.14-2.14-0.67-3.22
			c-6.68-8.97-8.03-19.59-8.8-30.24c-0.74-10.31,0.09-20.63,0.68-30.94c0.33-5.82,0.11-11.64-0.63-17.45
			c-0.75-5.9-0.07-11.71,2.98-16.92c2.07-3.55,4.66-6.72,9.6-4.55c0.62,0.27,1.26,0.63,1.68-0.2c0.3-0.58,0.54-1.36-0.11-1.82
			c-3.34-2.36-2.32-6.24-3.49-9.28c-2.19-5.68-0.27-11.79-2.88-17.34c-1.19-2.52,0.6-5.48,0.79-8.27c0.2-2.99-0.24-5.34-1.97-8.25
			c-1.53-2.58-3.04-7.16-1.05-10.64c1.77-3.1,0.89-5.4-0.89-7.64c-0.9-1.13-1-2.21-1.36-3.47c-1.49-5.26-0.03-9.68,3.96-14.07
			c-6.88,0.67-6.31-5.06-6.5-7.74c-0.19-2.75-1.27-5.24-1.5-7.92c-0.19-2.14-2.41-4,0.86-5.72c1.41-0.74-0.44-1.57-0.59-2.4
			c-0.93-5.32-2.19-10.4,1.55-15.58c6-8.3,11.11-17.25,16.97-25.66c3.69-5.3,8.47-10.03,13.34-13.95c3.54-2.85,6.16-5.99,9.54-9.37
			c-2.84-0.91-4.53,0.33-5.17,1.81c-1.36,3.13-3.52,0.75-4.52,0.44c-1.61-0.5-0.96-2.98-0.02-3.77c4.81-4.05,9.93-7.83,16.11-9.41
			c3.15-0.8,15.94-4.97,18.42-6.69c1.25-0.87,1.05-2.01,0.96-3.1c-0.1-1.23-1.12-1.54-2.18-1.52c-2.34,0.04-5.9,1.9-4.61-3.23
			c-3.19,0.08-5.45-2.57-8.5-2.92c4.57-0.31,8.93,0.49,13.43,1.25c2.97,0.5,7.21,0.53,10.66-0.53c5.62-1.73,11.77-0.96,17.09-4.26
			c4.47-2.77,7.39-6.69,9.93-11.02c0.36-0.61,0.17-1.89,0.96-2.11c5.3-1.42,7.24-5.89,9.14-10.21c1.9-4.32,6.6-4.56,9.77-5.77
			c4.36-1.68,8.05-6.7,13.87-4.45c0.53,0.21,2.59-0.17,3.65-0.79c7.53-4.39,15.61-3.16,23.63-2.44c1.82,0.16,3.82,0.17,5.37,0.96
			c4.35,2.24,8.73,3.98,13.83,2.96c-3.09,1.14-4.45,4.84-8.11,4.78c-1.07-0.02-0.99,1.46-0.11,2.33c1.13,1.11,2.54,1.65,4.08,1.61
			c6.03-0.13,9.96,4.21,14.64,6.9c2.03,1.16,4.11,1.68,6.33,2.39c-0.04-2.54-4.28-1.99-2.99-4.12c1.28-2.11,3.62,0.03,5.4,0.5
			c8.84,2.34,15.6,8.46,22.9,13.43c3.57,2.43,7.35,4.13,11.17,6.01c-1.75-3.03-5.4-3.68-7.83-6.3c2.22-1.47,4.21-1.19,6.44-0.22
			c2.07,0.9,4.38,2.07,6.39-0.29c1.41,2.94,4.77,2.22,7.01,3.64c0.67,0.42,2.04-0.23,2.31-1.31c0.24-0.97-0.64-1.62-1.46-1.62
			c-2.58-0.02-4.99-2.04-7.68-0.65c-1.28-4.81-5.09-0.5-7.45-2.12c0.13-0.38,0.22-1.13,0.44-1.17c7.11-1.3,14.96-1.74,20.92,1.23
			c3.77,1.88,8.41,4.25,11.79,7.63c1.23,1.23,2.78,1.95,4.45,2.07c3.02,0.22,4.8,1.66,5.94,4.47c1.01,2.49,1.26,2.42,3.86,1.08
			c1.04-0.54,1.57,0.03,1.91,0.81c2,4.68,5.53,7.73,10.12,9.71c0.88,0.38,0.8,0.5,0.42,2.74c-0.07,0.39,0.13,1.07,0.42,1.25
			c8.16,5.08,11.26,14.48,17.89,20.85c2.17,2.09,2.47,5.16,4.3,7.59c5.97,7.94,9.25,17.07,9.64,27.09c0.09,2.32,2.2,3.53,2.58,5.79
			c1.86,10.93,6.12,21.57,4.18,32.92c-0.56,3.29-0.84,6.78-2.65,9.74c-0.45,0.73-0.99,1.34-0.74,2.23
			c1.41,5.07-2.29,9.43-1.97,14.34c0.01,0.16,0.02,0.46-0.03,0.48c-8.46,2.46-0.58,8.69-2.91,12.55c-3.41,5.66,0.36,13.12-2.57,17.6
			c-3.26,4.99,1.3,11.64-4.73,15.02c2.62,4.95-3.24,4.58-4.51,7.12c-1.79,3.57-4.36,6.62-7.04,9.57c-0.53,0.58-1.2,1.04-2.21,1.9
			c-1.05-2.98-0.66-5.56-0.39-8.13c0.51-4.95,0.99-9.91,1.6-14.84c0.2-1.64-0.71-3.86,1.99-4.49c1.15-0.27,0.98-1.22,0.53-1.96
			c-3.93-6.5-2.26-13.92-2.9-20.85c-0.37-4.02-1.37-7.55-3.27-10.57c-2.19-3.49-2.24-6.82-1.93-10.55
			c0.41-4.78-2.25-8.89-3.56-13.26c-0.62-2.09-3.88-0.27-5.46-0.18c-3.78,0.23-5.27-1.62-6.25-4.21c-1.81-4.8-5.22-8.35-8.73-12.5
			c-1,2.35,1.31,4.9-1.27,6.74c-3.53-5.89-5.09-0.2-7.45,1.72c-1.84-1.66-1.51-4.06-2.45-5.91c-0.97-1.9-0.85-4.79-4.23-4.66
			c-1.22,0.05-1.42-1.26-1.64-2.19c-1.38-5.68-4.05-10.4-7.9-15.04c-6.97-8.41-12.12-18.2-19.16-26.71
			c-7.2-8.7-15.69-15.41-25.97-19.5c-6.42-2.55-12.18-6.43-18.9-8.37c-5.23-1.51-10.15-4.31-15.84-2.46
			c-1.44,0.47-2.7,0.99-4.14-0.12c-4.65-3.57-9.35-0.54-14.09-0.2c-4.1,0.3-8.15-0.22-12.25,1.25c-3.38,1.21-7.3,0.96-9.72,4.31
			c-1.39,1.92-3.55,1.93-5.45,1.66c-2.67-0.38-5.07,0.32-7.19,1.53c-3.63,2.07-6.43,5.95-11.48,4.52c-0.61-0.17-2.03,0.47-2.16,0.96
			c-2.58,10.5-13.33,16.23-15.62,26.87c-0.3,1.4-1.79,2.79,1.18,2.97c2.06,0.13,1.93,1.38,0.72,2.71c-1,1.1-1.74,2.89-2.95,3.28
			c-5.5,1.78-3.95,5.93-3.05,9.37c0.6,2.3,1.14,3.98-0.79,5.78c-1.01,0.95-1.13,2.34-0.86,3.74c0.79,4.04-0.18,7.97-0.92,11.88
			c-0.95,4.99-3.77,6.78-8.24,4.46c-2.93-1.52-3.63-0.38-4.2,1.77c-1.57,5.97-2.83,12.03-1.99,18.24c0.31,2.25-0.18,5.31,3.31,5.95
			c0.28,0.05,0.75,0.48,0.71,0.59c-2.34,7.23,6.83,12.24,3.75,19.73c-0.66,1.59-0.74,3.49-1.5,5.19c-1.67,3.72-1.44,4.18,2.8,7.62
			c-1.28-6.11,1.77-4.15,5.17-3.92c5.27,0.35,10.4,1.62,15.58,2.23c5.51,0.64,10.93-1.88,16.5,0.63c3.24,1.46,7.4,0.9,11.07,1.33
			c3.8,0.45-0.34,4.16,2.27,3.43c3.61-1.01,3.01,1.77,3.82,3.6c1.54,3.47,5.63,3.88,8.38,5.66c2.93,1.91,5.73,3.64,7.89,6.39
			c1.81,2.3,2.97,5.4,6.72,5.22c0.71-0.03,1.49,0.34,1.25,1.13c-0.94,3.11,1.66,5.7,1.12,8.74c-1.01,5.61,3.12,6.91,7.1,7.88
			c3.81,0.93,7.7,2.03,11.48-0.79c1.21-0.9,3.75-0.58,4.7,0.61c3.46,4.32,4.73,0.89,6.31-1.52c1.1-1.67,1.97-3.48,3.1-5.12
			c0.87-1.25,1.29-2.11-0.17-3.34c-2.9-2.43-1.72-4.82,0.79-6.51c2.49-1.68,4.24-3.8,5.04-6.59c1.15-4.01,5.81-5.35,6.9-9.44
			c0.21-0.8,1.9-0.75,2.72-0.18c1.14,0.8,0.3,1.78-0.18,2.62c-0.91,1.58-3.31,1.59-4.4,4.83c4.23-1.82,7.59-3.42,11.08-4.01
			c0.6-2.27-3.6,0.02-2.15-2.68c1.09-2.03,2.22-4.45,5.13-3.87c1.57,0.31,2.99,0.64,4.18-0.54c1.65-1.64,2.62-5.44,5.72-1.52
			c0.08,0.1,0.42,0.14,0.46,0.08c2.98-4.33,5.23,0.43,7.65,0.91c2.84,0.56,4.92-2.88,7.96-0.58c2.14,1.62,5.12,2.11,7.71,3.15
			c2.36,0.95,1.13,3.29,1.72,4.92c0.17,0.47-3.43,0.29-1.21,2.15c1.08,0.9,3.6,0.06,3.47-1.59c-0.34-4.34,1.79-3.5,4.8-3.61
			c3.23-0.12,6.87-0.07,9.67-3.07c1.94-2.08,8.42,0.79,10.43,4.2c3.3,5.57,2.85,7.73-2.83,10.85c-3.81,2.09-7.57,5.1-13.27,2.45
			c10.24,0.34,5.36-7.67,7.79-11.65c-3.71-0.93-7.04-0.05-10.4,0.81c-1.75,0.44-2.8,0.91-3.26,3.03c-0.95,4.29-4.09,5.96-8.44,6.24
			c-9.29,0.61-18.54,1.67-27.83,2.3c-9.28,0.63-17.26,4.19-24.7,9.6c-6.75,4.91-9.48,11.59-8.95,19.49
			c0.35,5.23,0.12,10.72,3.13,15.51c-2.33-2.07-2.71-2.89-3.59-6.29c-1.12-4.3-2.25-8.61-3.53-12.87c-0.97-3.23-3.8-4.45-6.65-5.54
			c-11.56-4.41-19.52,1.43-20.09,13.62c-0.28,5.92-0.04,11.54,1.24,17.25c0.32,1.41,0.41,3.26-0.25,4.42
			c-3.62,6.44-0.24,12.49,0.77,18.64c0.26,1.57-0.05,2.97-0.29,4.43c-2.67,16.05,9.33,22.2,21.08,17.87c4.83-1.78,8.47-1,12.59,0.61
			c1.4,0.54,3.12,0.79,4.09,1.76c2.03,2.05,7.34,0.38,6.62,5.18c-1.04,6.85-4.9,9.58-10.35,10.99c-7.31,1.89-14.27,5.15-20.12,10.17
			c-2.07,1.77-2.5,4.14-1.34,6.81c0.49,1.12,1.28,2.96,0.06,3.68c-1.37,0.8-3.39,0.58-4.5-0.95c-1.02-1.41-2.35-2.46-3.52-0.99
			c-2.71,3.4-5.95,1.94-9.11,1.55c-2.93-0.36-5.8-0.85-8.3,1.45c-1.1,1.02-2.7,0.43-3.8,0.11c-2.89-0.83-5.11-1.2-4.21,3.55
			c-4.63-4.07-6.17-3.55-7.36,1.18c-0.68,2.71,0.3,3.96,2.78,3.93c9.1-0.11,17.1,3.67,25.26,6.91c1.74,0.69,3.46,0.89,5.36,0.5
			c10.55-2.14,21.18-1.63,31.81-0.74c5.14,0.43,10.29,0.89,15.4-0.39c2.2-0.55,3.51-1.58,3.49-4.09c-0.02-2.66,4.76-6.68,7.16-5.57
			c2.35,1.09,5.04,0.74,7.05,2.4c1.27-1.32-0.6-3.82,1.62-4.32c1.76-0.4,2.02,1.94,3.29,2.7c2.38,1.44,2.6,4.25,3.42,6.48
			c0.94,2.58-1.72,3.08-3.37,2.99c-7.6-0.41-14.09,2.79-20.82,5.6c-4.31,1.8-9.21,1.2-13.81,1.08c-9.8-0.26-19.54-1.62-29.38,0.19
			c-4.67,0.86-9.66,0.78-14.28-0.72c-4.71-1.52-9.49-1.6-14.31-1.62c-1.62-0.01-3.72-0.42-4.14,1.76c-0.43,2.22,0.96,4.02,3,4.59
			c3.99,1.11,7.04,2.81,7.71,7.38c0.18,1.24,1.84,1.26,2.95,1.46c11.46,2.1,22.99,2.71,34.61,1.87c2.26-0.16,4.56,0.17,7.39,0.3
			c-3.63,3.57-9.49,0.37-12.32,5.4c3.71,1.19,7.5-0.39,10.84,2.11c-6.03,2.93-12.23,4.83-19,3.39c-3.01-0.64-5.16-0.1-7.75,1.76
			c-2.98,2.14-7.05,2.22-10.73,2.05c-1.96-0.09-1.48-3.17-4.81-3.73c-6.53-1.1-12.18,2.09-18.38,1.66
			c-5.62-0.4-10.86-1.13-14.2-6.41c-0.34-0.54-0.97-1.36-1.41-1.32c-6.4,0.5-5.36-3.66-5.47-7.8c-0.06-2.46-1.99-4.83-2.87-7.31
			c-1.72-4.84-6.03-8.21-7.21-13.46c-0.49-2.18-3.52-3.04-5.74-3.53c-7.55-1.65-10.01-4.17-11.32-12.3
			c-1.07-6.66-2.85-7.65-8.99-4.97c-4.44,1.93-5.06,7.41-0.99,10.26c1.85,1.29,4.04,1.91,1.56,4.56c-0.73,0.78-0.53,1.93,0.13,2.8
			c2.77,3.63,2.35,7.49,1.47,11.69c-0.72,3.43,0.84,6.23,3.01,9.38c3.31,4.8,8.81,8.22,9.95,14.45c0.29,1.56,1.23,2.3,2.63,2.61
			c1.71,0.39,2.35-0.95,3.06-2.04c0.53-0.81,0.88-1.74,1.62-3.28c1.84,4.48-3.88,8.14,0.06,12.22c0.89-1.05-0.72-6.55,3.67-1.72
			c-0.54-3.23-2.64-5.55,0.07-8.05c3.18,3.35,5.8,6.51,4.32,11.8c-1.11,3.96,0.84,7.81,2.39,11.48c0.4,0.95,0.3,2.82,1.94,2.31
			c1.57-0.49,2.16-2,1.43-3.68c-0.38-0.89-0.83-1.75-1.47-3.1c2.79-0.04,5.08-0.7,4.24,3.34c-0.35,1.67,0.13,3.88,2.64,4.06
			c6.32,0.46,10.06,4.22,12.68,9.57c0.57,1.15,1.49,2.13,2.28,3.23c1.88-1.05,0.64-2.51,0.89-3.66c0.23-1.1,0.8-1.39,1.75-1.12
			c0.7,0.2,2.37,0.15,1.9,0.85c-2.72,4.07,1.1,2.39,2.46,3.36c5.43,3.87,11.54,5.87,17.81,7.63c0.42,0.12,0.85,0.56,1.06,0.96
			c0.6,1.17-1.36,3.23,1.1,3.7c2.49,0.48,1.84-1.45,2.06-2.88c0.12-0.78,1.17-0.41,1.63,0.05c4.66,4.8,10.87,3.51,16.43,3.69
			c6.53,0.21,13.09-0.18,19.64-0.16c2.46,0.01,5.08,0.29,7.61,0.2c1.99-0.07,3.92-0.51,4.73-2.23c2.66-5.68,8.14-7.48,13.05-10.23
			c3.98-2.22,8.38-3.4,11.92-6.84c3.5-3.41,4.87,0.21,5.3,4.16c2.75-2.99,5.41-4.31,9.05-4.06c2.45,0.16,10.04-9.42,10.64-11.99
			c1-4.25,4.07-7.54,5.52-11.74c2.42-7.04,7.91-12.39,12.22-18.39c3.65-5.08,5.84-11.12,10.21-15.77c0.74-0.79,0.09-3.13,2.33-2.12
			c1.59,0.72,1.29,2.12,0.79,3.44c-0.21,0.54-0.48,1.06-0.94,2.07c2.83-1.26,3.01-4.06,5.31-5.59c-0.56,4.03-2.28,7.21-3.45,10.59
			c-3.53,10.2-7.74,19.98-13.38,29.25c-2.74,4.5-3.95,9.88-9.03,12.72c-0.61,0.34-0.93,1.37-1.18,2.15
			c-3.31,10.12-9.44,18.87-13.74,28.54c-6.19,13.92-14.91,26.04-26.96,35.87c-12.12,9.89-24.05,19.89-37.36,28.24
			c-4.92,3.09-10.2,6.04-13.75,10.97c1.79,1.52,4.29,1.13,6.43,1.73c1.3,1.76-3.03,2.87-0.72,4.08c2.83,1.49,5.68,3.39,9.33,2.83
			c17.54-2.7,34.07-8.45,48.4-18.83c14.62-10.59,29.5-21.23,40.37-36.02c8.36-11.37,16.05-23.24,19.89-37.08
			c2.2-7.94,1.51-15.47-3.61-22.32c-3.54-4.74-1.84-10.32-1.8-15.52c0.02-2.72,2.07-1.24,3.15-0.45c3.98,2.9,6.29,7.29,9.34,11
			c3.29,3.99,6.95,6.48,12.15,6.81c18.67,1.17,35.57,9.24,53.38,13.75c11.2,2.84,21.99,6.42,32.08,12.05
			c0.29,0.16,0.58,0.4,0.89,0.45c10.62,1.79,19.43,8.07,29.29,11.78c16.45,6.19,33.08,12.05,49.04,19.35
			c9.08,4.15,19.06,7.18,26.4,14.79c1.75,1.82,4.59,2.66,6.92,3.73c10.41,4.74,17.45,13.61,25.97,20.6
			c9.98,8.18,18.91,17.61,29.16,25.52c0,37.83-0.04,75.67,0.08,113.5c0.01,2.98-0.6,3.58-3.58,3.58c-262.33-0.09-524.67-0.09-787,0
			c-2.98,0-3.59-0.6-3.58-3.58C-97.96,778.22-98,740.06-98,701.89z M239.67,371.2c7.28,2.57,14.57,5.14,21.85,7.71
			c0.18-0.59,0.36-1.17,0.54-1.76c-7.08-3.33-13.83-7.74-22.51-5.84c-0.39-0.84-1.11-1.02-1.97-1.24
			c-8.34-2.08-16.52-1.02-24.98-0.16c-12.61,1.28-23.98,4.66-34.09,12.3c-1.96,1.48-2.1,2.95-0.69,5.43
			c7.74-11.09,18.92-14.62,31.12-15.9C219.15,370.67,229.44,373.47,239.67,371.2z M222.75,376.07c13.07-0.75,23.54,4.71,33.44,12.31
			c-3.94,1.86-3.97,1.87-9.25-2.12c-2.86-2.16-5.05-3.56-6.89,1.41c-2.08,5.61-9.77,8.68-15.56,6.36
			c-4.53-1.82-8.11,0.05-12.78,1.34c4.02,3.11,7.82,4.39,12.45,4.47c-1.52,1.25-2.88,1.74-3.74,3.34
			c-2.35,4.34-6.35,7.03-11.32,6.32c-2.69-0.38-4.5,0.09-6.67,1.34c-1.9,1.09-3.81,2.09-5.13,3.84c-1.54,2.03-3.06,2.5-4.83,0.37
			c-1.47-1.77-3.99-2.42-4.92-4.82c-0.34-0.88-1.25-1.7-2.4-1.42c-3.09,0.76-4.47,3.91-8.05,4.91c-3.26,0.91,0.07,12.96,4.43,13.66
			c5.58,0.9,4.43,3.67,3.74,7.32c-1.23,6.61,1.73,10.04,8.35,10.27c13.55,0.47,26.87-1.52,40.18-3.71
			c5.66-0.93,10.94-2.9,16.06-5.31c8.26-3.89,13.59-10.56,18.13-19.48c-2.58,1.52-2.97,3.71-4.97,4.32c-0.57-1.9,0.03-3.87-1.17-5.7
			c-3.79-5.75-0.69-11.46,6.37-12.02c0.15,1.43-2.43,1.9-1.14,4.07c1.88-2.19,5.66-2.26,5.08-6.58c-0.44-3.29,0.25-6.74-2.11-11.06
			c0.36,2.78,0.62,4.23,0.72,5.68c0.09,1.34,0.02,2.69,0.02,4.99c-1.15-1.58-2.03-2.23-2.05-2.9c-0.36-9.57-1.99-11.71-10.97-14.22
			c-0.61-0.17-1.22-0.58-1.68-1.03c-7.18-7.08-16.69-7.6-25.81-8.91C227.76,372.75,224.84,373.62,222.75,376.07z M259.19,432.34
			c-5.27,3.17-9.85,6.66-15.46,8.41c-12.11,3.78-24.71,5.17-36.99,8.07c-3.21,0.76-6.45,1.45-9.57,2.47
			c-3.62,1.18-5.51,4.44-5.32,7.7c0.15,2.55-2.95,5.54,2.03,8.37c4.42,2.51,8.47,5.95,13.53,6.1c5.81,0.17,7.72,1.19,8.65,7.17
			c0.58,3.76,1.06,7.54,2.61,11.12c1.28,2.97,4.03,1.71,6.02,2.56c0.04-5.31,2.86-3.04,5.38-2.1c0.45,0.17,1.74-0.65,1.91-1.23
			c1.05-3.48,4.1-5.26,6.51-7.37c2.48-2.17,4.07-4.75,5.49-7.5c2.14-4.14,0.87-6.24-3.82-6.56c-1.82-0.12-2.99-0.81-2.82-2.64
			c0.14-1.43-0.24-2.86,2.24-3.66c3.78-1.21,8.02-2.94,10.53-5.8c5.59-6.37,5.66-15.4,9.36-22.8
			C259.7,434.2,259.34,433.45,259.19,432.34z M381.75,203.2c-4.63-3.51-7.09-7.84-10.64-11.35c-4.85-4.79-14.59-5.13-14.27-14.82
			c-5.46-1.65-8.9-6.78-14.33-8.46c-2.22,6.24,3.03,8.81,5.98,12.46c0.71,0.88,1.84,1.4,2.71,2.17c0.43,0.38,1.34,0.75,0.78,1.51
			c-0.47,0.64-1.63-1.13-1.9,0.23c-0.1,0.53,0.99,1.24,1.44,1.92c4.25,6.5,10.98,10.9,12.86,19.59c1.59,7.34,7.63,13.45,9.05,21.32
			c0.2,1.11,0.81,2.88,2.71,1.86c1.34-0.71,1.74-1.88,1.06-3.38c-1.99-4.38-3.58-8.97-6.55-12.85c-0.78-1.03-1.99-1.88-0.89-3.82
			c5.08,4.07,10.03,7.95,12.55,14.22c1.84,4.58,5.4,7.63,9.63,9.87c-4.38-9.42-9.08-18.54-13.74-27.67
			c-0.6-1.17-2.95-1.87-1.39-3.64C378.4,200.57,379.26,203.36,381.75,203.2z M388.9,200.5c1.07-5.1,1.48-5.39,5.76-2.89
			c6.56,3.84,12.93,8.01,19.95,11.12c0.66-2.75-0.41-4.31-2.2-6.33c-4.57-5.14-13.33-3.5-16.44-10.61c-0.04-0.1-0.34-0.18-0.46-0.13
			c-4.33,1.95-7.67-2.58-11.97-1.77C385.35,193.46,387.13,196.98,388.9,200.5z M393.07,184.95c-6.17-5.67-14.48-5.85-21.52-9.13
			c-0.82-0.38-1.65-0.18-2.12,0.7c-0.53,0.98,0.16,1.53,0.82,2.05c2.72,2.12,5.27,4.3,8.78,5.34
			C383.66,185.25,388.49,182.54,393.07,184.95z M269.2,454.39c-0.91-2.54-2.65-3.68-4.97-3.61c-3.49,0.1-5.44,2.26-5.87,5.56
			c-0.22,1.75,0.98,3.99,2.73,3C263.8,457.8,267.75,457.92,269.2,454.39z M160.42,388.76c1.52-3.6,0.59-5.62-2.6-7.51
			c-2.75-1.63-4.76-4.49-7.18-6.72c-0.67-0.62-1.25-2.21-2.75-0.77C150.51,379.93,153.87,385.43,160.42,388.76z M397.65,209.97
			c-0.3,0.33-0.61,0.66-0.91,0.99c2.99,2.41,5.98,4.82,8.97,7.22C404.14,214.08,400.57,212.42,397.65,209.97z"/>
		<path d="M392.44,400.67c-3.27-4.1-6.35-5.15-9.66-0.57c-0.88,1.22-2.42,1.9-3.34-0.52c-1.13-2.98-4.6-4.41-4.82-8.39
			c-0.11-2.04-2.77-4.12-5,0.01c-5.1,9.44-18.7,7.44-21.91-0.43c-0.59-1.45-0.36-4.91-3.26-3.96c-2.69,0.87-5.8,2.28-4.79,7.56
			c-2.23-3.08-3.99-4.9-6.88-3.53c-0.3,0.14-0.89,0.34-0.91,0.31c-2.41-5.34-6.99-2.26-10.64-2.94c-1.67-0.31-1.75-1.65-0.21-3.3
			c5.72-6.17,13.28-8.25,21-9.82c12.91-2.63,25.88,0.05,38.82,0.06c4.54,4.6,12.97,2.74,16.09,9.83c1.15,2.63,6.36,3.36,5.31,6.22
			c-0.88,2.4-4.7,4.07-7.55,5.29C392.72,397.34,392.88,398.75,392.44,400.67z M350.77,378.49c8.71-0.44,17.16,0.24,25.02,4.4
			c0.82,0.43,2.01,1.06,2.64-0.08c0.73-1.32-0.24-2.16-1.41-2.64C368.49,376.68,359.87,374.26,350.77,378.49z"/>
		<path d="M444.56,381.04c-1.48,3.48-6.28,2.68-5.94,6.39c0.35,3.92-4.06,7.34-0.95,12.06c2.09-3.7,5.35-5.17,8.65-6.58
			c2.23-0.96,5.75,1.17,5.08,3.35c-0.89,2.88-1.29,5.78-1.89,8.68c-0.59,2.88,0.43,5.76-0.1,8.64c-1.75-0.21-1.57-1.46-1.8-2.32
			c-1.27-4.86-4.6-6.77-9.3-4.79c-3.23,1.36-4.84-1.26-5.23-2.81c-0.46-1.78-2.32-4.69,0.94-6.32c1.11-0.56,1.39-2.11-0.16-3.49
			c-3.69-3.28-1.85-6.09,0.1-9.13c1.6-2.5,3.09-5.06,4.63-7.59C440.19,378.84,441.17,381.34,444.56,381.04z"/>
		<path d="M429.41,382.97c-3.32,2.21-5.35,4.82-4.53,8.93c4.15-1.7,5.98-1.5,3.88,3.79c-1.07,2.68-0.65,5.65-4.04,7.29
			c-1.01,0.49-0.9,3.44-1.16,5.28c-0.18,1.25-0.48,2.62-1.86,2.48c-1.82-0.19-0.89-1.7-0.81-2.76c0.2-2.61,1.75-5.33-2.74-6.59
			c-2.62-0.73-0.34-3.74,0.49-4.95c2.63-3.81,0.98-4.52-2.56-4.38c-1.64,0.06-3.47-0.44-4.84,0.64c-1.15,0.92-1.71,0.76-2.12-0.45
			c-0.31-0.93-0.57-2.41,0.76-2.39C417.13,389.93,421.47,382.72,429.41,382.97z"/>
		<path d="M325.15,433.22c6.34,7.73,14.98,11.39,23.92,14.54C339.47,445.62,330.38,442.62,325.15,433.22z"/>
		<path d="M375.37,162.06c-7.18-0.19-14.19-1.37-20.95-3.9C361.59,158.39,368.55,159.79,375.37,162.06z"/>
		<path d="M390.03,375.02c6.55,0.62,11.96,3.13,15.35,9.05C400.43,380.78,395.6,377.28,390.03,375.02z"/>
		<path d="M347.17,161.56c3.89-0.3,7.28,0.6,10.4,3.79C352.74,166.72,349.83,164.45,347.17,161.56z"/>
		<path d="M391.07,350.52c-2.9-0.5-3.27,4.86-6.69,2.69c-0.82-0.52-2.49-2.02-1.21-2.67C385.51,349.36,388.33,348.35,391.07,350.52z
			"/>
		<path d="M409.75,377.41c-2.49-0.09-4.58-2.18-7.01-0.28c0-2.19,0.96-3.33,1.81-4.5c0.47-0.64,0.96-1.46,1.94-1.2
			c1.25,0.33,1.21,0.89,0.7,2.12C406.23,375.85,410.05,374.75,409.75,377.41z"/>
		<path d="M320.1,402.12c2.93,3.2,0.08,4.29-1.02,5.8c-0.72,0.99-1.87,1.57-3.02,0.71c-1.9-1.43-1.92-3.26-0.86-5.18
			c2.31-0.44-0.46,3.55,2.89,2.86C320.72,405.77,320.04,404.09,320.1,402.12z"/>
		<path d="M246.49,144.07c2.74-3.41,5.77-6.61,10.48-7.24C253.48,139.24,249.99,141.66,246.49,144.07z"/>
		<path d="M206.05,297.64c-1.27-0.5-1.47-1.62-1.37-2.76c0.09-1.03,0.68-2.04,1.78-1.95c1.63,0.14,1.31,1.57,1.24,2.65
			C207.64,296.57,207.36,297.53,206.05,297.64z"/>
		<path d="M219.75,477.47c-1.11-0.2-1.59-1.22-1.35-1.78c0.78-1.77,2.37-2.52,4.3-2.46c1.12,0.04,2.07,0.6,1.74,1.75
			C223.76,477.38,220.58,475.27,219.75,477.47z"/>
	</g>
</g>
</svg>
